<svg height='100px' width='100px'  fill="#f8f8f8" xmlns="http://www.w3.org/2000/svg" xmlns:xlink="http://www.w3.org/1999/xlink" version="1.1" x="0px" y="0px" viewBox="0 0 512 512" enable-background="new 0 0 512 512" xml:space="preserve"><path d="M251.541,436.168c-21.075,0-41.888-3.686-61.86-10.955C95.944,391.095,47.44,287.079,81.558,193.343  c12.95-35.58,36.233-65.697,67.333-87.094c30.413-20.925,65.918-31.985,102.677-31.985c21.075,0,41.888,3.686,61.86,10.955  c93.736,34.117,142.24,138.134,108.123,231.87c-12.95,35.58-36.233,65.697-67.333,87.094  C323.804,425.108,288.299,436.168,251.541,436.168z M251.567,102.077c-31.104,0-61.158,9.366-86.912,27.085  c-26.305,18.098-46.002,43.581-56.962,73.693c-28.872,79.325,12.175,167.35,91.5,196.223c16.915,6.156,34.527,9.278,52.348,9.278  c31.104,0,61.158-9.366,86.912-27.085c26.305-18.098,46.002-43.581,56.962-73.693c28.872-79.325-12.175-167.351-91.5-196.223  C287,105.198,269.388,102.077,251.567,102.077z"></path><path d="M411.839,445.945c-12.169,0-27.335-2.524-46.239-8.951c-7.271-2.472-11.162-10.371-8.69-17.642  c2.473-7.272,10.375-11.161,17.642-8.69c41.168,13.996,53.369,4.825,56.128,1.681c11.168-12.732-3.624-48.281-19.685-74.854  c-25.129-41.577-66.281-88.433-115.876-131.937s-101.414-78.201-145.91-97.699c-28.439-12.461-65.612-22.497-76.78-9.764  c-7.14,8.139-4.153,28.098,7.987,53.392c3.324,6.924,0.405,15.231-6.519,18.554c-6.923,3.324-15.231,0.405-18.554-6.519  c-22.597-47.076-14.551-71.537-3.822-83.768c13.027-14.851,42.486-26.449,108.851,2.631  c47.039,20.612,101.406,56.93,153.088,102.265c51.682,45.335,94.774,94.507,121.338,138.459  c37.479,62.011,29.817,92.73,16.79,107.581C444.674,438.564,432.641,445.944,411.839,445.945z"></path><circle cx="183.31" cy="43.614" r="17.5"></circle><circle cx="482.843" cy="207.44" r="17.5"></circle><circle cx="212.681" cy="253.838" r="17.5"></circle></svg>